<?xml version="1.0" encoding="UTF-8"?>
<!DOCTYPE svg PUBLIC "-//W3C//DTD SVG 1.1//EN" "http://www.w3.org/Graphics/SVG/1.1/DTD/svg11.dtd">
<svg xmlns="http://www.w3.org/2000/svg" version="1.1" width="500px" height="500px" style="shape-rendering:geometricPrecision; text-rendering:geometricPrecision; image-rendering:optimizeQuality; fill-rule:evenodd; clip-rule:evenodd" xmlns:xlink="http://www.w3.org/1999/xlink">
<g><path style="opacity:1" fill="#f8a726" d="M -0.5,-0.5 C 166.167,-0.5 332.833,-0.5 499.5,-0.5C 499.5,166.167 499.5,332.833 499.5,499.5C 332.833,499.5 166.167,499.5 -0.5,499.5C -0.5,332.833 -0.5,166.167 -0.5,-0.5 Z"/></g>
<g><path style="opacity:1" fill="#985e33" d="M 238.5,178.5 C 239.552,178.351 240.552,178.517 241.5,179C 233.108,182.725 226.608,188.559 222,196.5C 216.504,205.495 212.67,215.161 210.5,225.5C 210.5,225.833 210.5,226.167 210.5,226.5C 199.268,232.905 191.435,242.238 187,254.5C 186.333,257.167 186.333,259.833 187,262.5C 192.256,255.626 198.756,250.292 206.5,246.5C 206.181,251.363 206.514,256.03 207.5,260.5C 207.323,264.234 207.656,267.901 208.5,271.5C 207.84,272.964 207.507,274.631 207.5,276.5C 208.503,282.508 209.503,288.508 210.5,294.5C 208.193,295.653 205.86,296.82 203.5,298C 207.48,301.155 211.814,303.655 216.5,305.5C 217.167,306.167 217.833,306.833 218.5,307.5C 223.394,313.954 229.727,318.454 237.5,321C 236.207,321.49 234.873,321.657 233.5,321.5C 179.546,315.018 159.38,285.351 173,232.5C 184.773,202.221 206.606,184.221 238.5,178.5 Z"/></g>
<g><path style="opacity:1" fill="#c17d4f" d="M 238.5,178.5 C 277.997,175.502 306.497,191.835 324,227.5C 331.911,246.575 332.578,265.908 326,285.5C 318.89,300.609 307.39,310.775 291.5,316C 272.374,321.613 253.041,323.447 233.5,321.5C 234.873,321.657 236.207,321.49 237.5,321C 229.727,318.454 223.394,313.954 218.5,307.5C 240.023,314.579 261.357,314.079 282.5,306C 287.098,303.73 291.431,301.063 295.5,298C 274.735,289.271 264.568,273.771 265,251.5C 268.734,244.55 274.568,241.717 282.5,243C 294.497,245.747 304.331,251.914 312,261.5C 312.194,255.068 310.527,249.068 307,243.5C 295.675,228.855 280.842,220.021 262.5,217C 244.197,214.328 226.863,217.162 210.5,225.5C 212.67,215.161 216.504,205.495 222,196.5C 226.608,188.559 233.108,182.725 241.5,179C 240.552,178.517 239.552,178.351 238.5,178.5 Z"/></g>
<g><path style="opacity:1" fill="#f0cea3" d="M 218.5,307.5 C 217.833,306.833 217.167,306.167 216.5,305.5C 214.562,301.957 212.895,298.29 211.5,294.5C 221.857,287.155 229.357,277.488 234,265.5C 235.797,245.151 226.963,238.484 207.5,245.5C 207.529,238.994 208.529,232.661 210.5,226.5C 210.5,226.167 210.5,225.833 210.5,225.5C 226.863,217.162 244.197,214.328 262.5,217C 280.842,220.021 295.675,228.855 307,243.5C 310.527,249.068 312.194,255.068 312,261.5C 304.331,251.914 294.497,245.747 282.5,243C 274.568,241.717 268.734,244.55 265,251.5C 264.568,273.771 274.735,289.271 295.5,298C 291.431,301.063 287.098,303.73 282.5,306C 261.357,314.079 240.023,314.579 218.5,307.5 Z"/></g>
<g><path style="opacity:1" fill="#eeb683" d="M 210.5,226.5 C 208.529,232.661 207.529,238.994 207.5,245.5C 206.833,245.5 206.5,245.833 206.5,246.5C 198.756,250.292 192.256,255.626 187,262.5C 186.333,259.833 186.333,257.167 187,254.5C 191.435,242.238 199.268,232.905 210.5,226.5 Z"/></g>
<g><path style="opacity:1" fill="#bf7d4f" d="M 211.5,294.5 C 211.167,294.5 210.833,294.5 210.5,294.5C 209.503,288.508 208.503,282.508 207.5,276.5C 207.507,274.631 207.84,272.964 208.5,271.5C 212.12,277.774 216.286,278.107 221,272.5C 222.476,267.924 222.81,263.257 222,258.5C 219.872,252.687 216.039,251.187 210.5,254C 208.781,255.87 207.781,258.037 207.5,260.5C 206.514,256.03 206.181,251.363 206.5,246.5C 206.5,245.833 206.833,245.5 207.5,245.5C 226.963,238.484 235.797,245.151 234,265.5C 229.357,277.488 221.857,287.155 211.5,294.5 Z"/></g>
<g><path style="opacity:1" fill="#2b2628" d="M 208.5,271.5 C 207.656,267.901 207.323,264.234 207.5,260.5C 207.781,258.037 208.781,255.87 210.5,254C 216.039,251.187 219.872,252.687 222,258.5C 222.81,263.257 222.476,267.924 221,272.5C 216.286,278.107 212.12,277.774 208.5,271.5 Z"/></g>
<g><path style="opacity:1" fill="#2b2628" d="M 281.5,252.5 C 285.888,251.943 289.055,253.61 291,257.5C 291.826,262.589 291.492,267.589 290,272.5C 284.209,278.407 279.876,277.407 277,269.5C 276.333,265.833 276.333,262.167 277,258.5C 277.804,255.854 279.304,253.854 281.5,252.5 Z"/></g>
<g><path style="opacity:1" fill="#9c6237" d="M 244.5,269.5 C 245.239,269.369 245.906,269.536 246.5,270C 242.414,275.8 243.414,280.8 249.5,285C 248.552,285.483 247.552,285.649 246.5,285.5C 241.174,283.168 238.674,279.168 239,273.5C 240.451,271.536 242.284,270.203 244.5,269.5 Z"/></g>
<g><path style="opacity:1" fill="#c07e50" d="M 244.5,269.5 C 248.389,268.306 252.389,268.472 256.5,270C 261.868,274.896 261.534,279.563 255.5,284C 252.597,286.288 249.597,286.788 246.5,285.5C 247.552,285.649 248.552,285.483 249.5,285C 243.414,280.8 242.414,275.8 246.5,270C 245.906,269.536 245.239,269.369 244.5,269.5 Z"/></g>
<g><path style="opacity:1" fill="#ecb582" d="M 210.5,294.5 C 210.833,294.5 211.167,294.5 211.5,294.5C 212.895,298.29 214.562,301.957 216.5,305.5C 211.814,303.655 207.48,301.155 203.5,298C 205.86,296.82 208.193,295.653 210.5,294.5 Z"/></g>
<g><path style="opacity:1" fill="#f1ba87" d="M 232.5,294.5 C 243.838,294.333 255.172,294.5 266.5,295C 267.833,296.333 267.833,297.667 266.5,299C 255.167,299.667 243.833,299.667 232.5,299C 231.272,297.51 231.272,296.01 232.5,294.5 Z"/></g>
</svg>
