<?xml version="1.0" encoding="UTF-8"?>
<!DOCTYPE svg PUBLIC "-//W3C//DTD SVG 1.1//EN" "http://www.w3.org/Graphics/SVG/1.1/DTD/svg11.dtd">
<svg xmlns="http://www.w3.org/2000/svg" version="1.1" width="231px" height="231px" style="shape-rendering:geometricPrecision; text-rendering:geometricPrecision; image-rendering:optimizeQuality; fill-rule:evenodd; clip-rule:evenodd" xmlns:xlink="http://www.w3.org/1999/xlink">
<g><path style="opacity:0.981" fill="#9e2a2b" d="M 229.5,51.5 C 198.247,61.1953 167.08,71.1953 136,81.5C 135.581,82.6721 134.915,83.6721 134,84.5C 131.28,110.15 128.78,135.816 126.5,161.5C 125.188,163.743 124.522,166.41 124.5,169.5C 126.082,181.333 127.749,193.167 129.5,205C 129.743,211.829 127.743,217.829 123.5,223C 114.036,224.204 109.702,219.871 110.5,210C 112.791,198.877 114.958,187.711 117,176.5C 118.131,170.529 118.464,164.529 118,158.5C 107.986,148.319 97.8192,138.319 87.5,128.5C 86.1861,129.313 85.0195,130.313 84,131.5C 70.8591,157.474 51.0258,176.474 24.5,188.5C 21.4123,200.044 14.4123,203.544 3.5,199C 1.92975,197.603 0.596413,196.103 -0.5,194.5C -0.5,190.5 -0.5,186.5 -0.5,182.5C 1.3727,178.763 3.53937,175.096 6,171.5C 26.6667,152.167 47.3333,132.833 68,113.5C 97.7565,78.406 128.257,43.906 159.5,10C 166.67,5.79097 174.003,5.45764 181.5,9C 193.708,17.2739 205.375,26.2739 216.5,36C 221.797,40.4548 226.13,45.6214 229.5,51.5 Z M 170.5,22.5 C 178.658,21.8229 182.158,25.4895 181,33.5C 178.774,37.8608 175.274,39.3608 170.5,38C 166.139,35.7742 164.639,32.2742 166,27.5C 167.025,25.313 168.525,23.6464 170.5,22.5 Z M 50.5,143.5 C 57.2814,145.681 57.7814,148.681 52,152.5C 46.724,150.195 46.224,147.195 50.5,143.5 Z M 40.5,152.5 C 46.6616,154.96 46.9949,157.96 41.5,161.5C 36.5843,158.937 36.251,155.937 40.5,152.5 Z M 28.5,162.5 C 34.4877,162.664 35.821,165.164 32.5,170C 26.4034,170.147 25.0701,167.647 28.5,162.5 Z"/></g>
<g><path style="opacity:0.998" fill="#f8eded" d="M 229.5,51.5 C 229.833,51.5 230.167,51.5 230.5,51.5C 230.5,52.8333 230.5,54.1667 230.5,55.5C 200.113,64.9623 169.779,74.6289 139.5,84.5C 138.159,88.3837 137.325,92.3837 137,96.5C 134.831,117.52 132.665,138.52 130.5,159.5C 130.624,160.107 130.957,160.44 131.5,160.5C 130.081,161.451 128.415,161.784 126.5,161.5C 128.78,135.816 131.28,110.15 134,84.5C 134.915,83.6721 135.581,82.6721 136,81.5C 167.08,71.1953 198.247,61.1953 229.5,51.5 Z"/></g>
<g><path style="opacity:0.986" fill="#9e2b2b" d="M 230.5,55.5 C 230.5,56.8333 230.5,58.1667 230.5,59.5C 216.224,82.6342 199.057,103.634 179,122.5C 178.333,124.5 178.333,126.5 179,128.5C 184.681,132.863 186.681,138.53 185,145.5C 181.34,149.367 176.84,150.534 171.5,149C 166.892,146.223 164.726,142.056 165,136.5C 157.996,140.215 157.663,144.548 164,149.5C 164.996,156.166 162.163,158.666 155.5,157C 153.129,154.326 151.963,151.159 152,147.5C 148.781,149.438 146.948,152.271 146.5,156C 149.283,160.451 152.45,164.617 156,168.5C 156.635,179.847 151.469,183.681 140.5,180C 138.951,178.786 137.785,177.286 137,175.5C 136.667,169.833 136.333,164.167 136,158.5C 134.67,159.582 133.17,160.249 131.5,160.5C 130.957,160.44 130.624,160.107 130.5,159.5C 132.665,138.52 134.831,117.52 137,96.5C 137.325,92.3837 138.159,88.3837 139.5,84.5C 169.779,74.6289 200.113,64.9623 230.5,55.5 Z"/></g>
</svg>
