<svg width="100%" height="auto" viewBox="0 0 104 47" fill="none" xmlns="http://www.w3.org/2000/svg">
<path d="M24.3074 13.3534L24.424 46.4756L12.9649 47.0003L12.8484 13.6452L0.810307 13.9369L0 2.27358L36.3455 1.39844L37.2706 13.0617L24.3074 13.3534Z" fill="#FA573E"/>
<path d="M41.9294 12.3908C40.8685 11.7878 39.9999 10.9625 39.3255 9.91299C38.6494 8.86353 38.3122 7.7358 38.3122 6.53158C38.3122 4.66567 39.0166 3.11104 40.4253 1.86591C41.8324 0.622564 43.5218 0 45.4884 0C47.3403 0 48.8356 0.563865 49.9743 1.69159C51.1112 2.81932 51.6814 4.31526 51.6814 6.18117C51.6814 8.24274 51.0635 9.94323 49.8295 11.2844C48.5937 12.6256 47.0508 13.2962 45.1989 13.2962C44.0797 13.2962 42.9904 12.9938 41.9294 12.3908ZM38.8912 15.5107H50.9876V46.4166H39.8181L38.8912 15.5107Z" fill="#FA573E"/>
<path d="M76.6261 13.3534L76.7426 46.4756L65.2836 47.0003L65.1671 13.6452L53.129 13.9369L52.3187 2.27358L88.6642 1.39844L89.591 13.0617L76.6261 13.3534Z" fill="#FA573E"/>
<path d="M94.2481 12.3908C93.1871 11.7878 92.3185 10.9625 91.6441 9.91299C90.968 8.86353 90.6308 7.7358 90.6308 6.53158C90.6308 4.66567 91.3352 3.11104 92.7439 1.86591C94.151 0.622564 95.8387 0 97.8071 0C99.6589 0 101.154 0.563865 102.293 1.69159C103.43 2.81932 104 4.31526 104 6.18117C104 8.24274 103.382 9.94323 102.148 11.2844C100.912 12.6256 99.3694 13.2962 97.5175 13.2962C96.3983 13.2962 95.309 12.9938 94.2481 12.3908ZM91.2098 15.5107H103.306V46.4166H92.1349L91.2098 15.5107Z" fill="#FA573E"/>
</svg>
